<?xml version="1.0" encoding="UTF-8"?>
<svg width="48" height="32" viewBox="0 0 48 32" fill="none" xmlns="http://www.w3.org/2000/svg">
  <rect width="48" height="32" rx="4" fill="#006FCF"/>
  <path d="M24.6667 18.6667H23.3333V14.6667H24.6667V18.6667Z" fill="white"/>
  <path d="M22 18.6667L20.6667 14.6667H19.3333L18 18.6667H19.3333L19.6667 17.3333H21.3333L21.6667 18.6667H22ZM20 16.6667H20.6667L20.3333 15.3333L20 16.6667Z" fill="white"/>
  <path d="M28.6667 18.6667L27.3333 16.6667L28.6667 14.6667H27.3333L26.6667 15.3333L26 14.6667H24.6667L26 16.6667L24.6667 18.6667H26L26.6667 18L27.3333 18.6667H28.6667Z" fill="white"/>
  <path d="M30.6667 18.6667H32V14.6667H30.6667C29.3333 14.6667 28.6667 15.3333 28.6667 16.6667C28.6667 18 29.3333 18.6667 30.6667 18.6667ZM30 16.6667C30 16 30.6667 16 30.6667 16H31.3333V17.3333H30.6667C30.6667 17.3333 30 17.3333 30 16.6667Z" fill="white"/>
  <path d="M16 17.3333H17.3333V18.6667H18.6667V17.3333H19.3333V16H18.6667V14.6667H17.3333V16H16V17.3333Z" fill="white"/>
</svg> 