<?xml version="1.0" encoding="UTF-8"?>
<svg width="48" height="32" viewBox="0 0 48 32" fill="none" xmlns="http://www.w3.org/2000/svg">
  <rect width="48" height="32" rx="4" fill="#1A1F71"/>
  <path d="M18.6667 21.3333H15.3333L17.3333 10.6667H20.6667L18.6667 21.3333Z" fill="white"/>
  <path d="M28.6667 11C28 10.6667 26.6667 10.6667 25.3333 10.6667C22.6667 10.6667 20.6667 12 20.6667 14C20.6667 15.3333 22 16.6667 24 16.6667C24.6667 17.3333 25.3333 17.3333 25.3333 18C25.3333 18.6667 24.6667 19.3333 23.3333 19.3333C22 19.3333 21.3333 19.3333 20 18.6667L19.3333 21.3333C20 21.3333 21.3333 21.3333 22.6667 21.3333C25.3333 21.3333 27.3333 20 27.3333 18C27.3333 16.6667 26 15.3333 24 15.3333C23.3333 14.6667 22.6667 14.6667 22.6667 14C22.6667 13.3333 23.3333 12.6667 24.6667 12.6667C26 12.6667 26.6667 12.6667 28 13.3333L28.6667 11Z" fill="white"/>
  <path d="M32.6667 21.3333H35.3333L33.3333 10.6667H31.3333C30.6667 10.6667 30 11.3333 29.3333 11.3333L25.3333 21.3333H28.6667L29.3333 19.3333H32.6667L32.6667 21.3333ZM30 17.3333L31.3333 13.3333L32 17.3333H30Z" fill="white"/>
  <path d="M14 10.6667L11.3333 18L10.6667 15.3333C10.6667 14 9.33333 12.6667 7.33333 12L10.6667 21.3333H14L19.3333 10.6667H14Z" fill="white"/>
</svg> 